PathFileType	4	(X/Y/Z)	D:/Ayumi_testdata/Ayumi_25_09_2024/motion/sumo_dl_80kg00/markers_experimental.trc	
DataRate	CameraRate	NumFrames	NumMarkers	Units	OrigDataRate	OrigDataStartFrame	OrigNumFrames	
200.00	200.00	7	52	mm	200.00	2081	2164	
Frame#	Time	RSACR			LSACR			USACR			LBAR			RBAR			RHEE			RMT1			RMT5			RMT2			LHEE			LMT1			LMT5			LMT2			LMMAL			LLMAL			LTIB4			LTIB2			LTIB3			LTIB1			RMMAL			RLMAL			RTIB1			RTIB2			RTIB3			RTHI1			RTHI4			RTHI3			RTHI2			LTHI1			LTHI4			LTHI3			LTHI2			FHD			LBHD			RBHD			C7			T10			CLAV			LSHO			RSHO			LRAD			LUL			LRFIN			RRAD			RUL			RUFIN			LDUPA			LMUPA			LUUPA			RDUPA			RUUPA			RMUPA			
		X1	Y1	Z1	X2	Y2	Z2	X3	Y3	Z3	X4	Y4	Z4	X5	Y5	Z5	X6	Y6	Z6	X7	Y7	Z7	X8	Y8	Z8	X9	Y9	Z9	X10	Y10	Z10	X11	Y11	Z11	X12	Y12	Z12	X13	Y13	Z13	X14	Y14	Z14	X15	Y15	Z15	X16	Y16	Z16	X17	Y17	Z17	X18	Y18	Z18	X19	Y19	Z19	X20	Y20	Z20	X21	Y21	Z21	X22	Y22	Z22	X23	Y23	Z23	X24	Y24	Z24	X25	Y25	Z25	X26	Y26	Z26	X27	Y27	Z27	X28	Y28	Z28	X29	Y29	Z29	X30	Y30	Z30	X31	Y31	Z31	X32	Y32	Z32	X33	Y33	Z33	X34	Y34	Z34	X35	Y35	Z35	X36	Y36	Z36	X37	Y37	Z37	X38	Y38	Z38	X39	Y39	Z39	X40	Y40	Z40	X41	Y41	Z41	X42	Y42	Z42	X43	Y43	Z43	X44	Y44	Z44	X45	Y45	Z45	X46	Y46	Z46	X47	Y47	Z47	X48	Y48	Z48	X49	Y49	Z49	X50	Y50	Z50	X51	Y51	Z51	X52	Y52	Z52	

1624	8.115	460.25464	977.55048	841.97693	463.29596	918.80261	846.52142	445.64301	947.28461	852.44226	257.17740	-186.62476	481.56192	208.13631	2033.76086	466.85959	291.91702	1383.24988	30.10846	127.53726	1492.88025	44.45031	192.50589	1541.19763	29.05081	156.22687	1521.66589	41.84568	334.26245	482.00510	39.63080	164.58530	385.21280	49.70636	227.26105	334.96570	30.01173	189.16068	355.08020	46.46375	274.65283	496.33270	67.89479	314.92847	427.21106	71.30185	345.90561	484.95737	201.05534	338.00021	490.12158	265.96353	374.64032	520.82642	248.05351	373.76910	528.99121	291.71301	242.86366	1380.14185	62.12022	284.55600	1439.87976	69.72324	302.17096	1371.89392	309.84106	342.96457	1351.59314	288.58636	306.31732	1385.66296	246.21666	441.96277	1139.88916	703.45935	359.08197	1224.14294	597.43176	401.69489	1221.66760	568.44031	409.73987	1194.41370	628.01294	467.11694	745.16003	709.11084	384.08670	649.14038	603.77606	430.03879	660.57617	582.69250	422.34436	683.29626	644.40460	-52.52106	793.22968	1254.75940	14.16160	851.20233	1325.65674	-15.47152	968.36945	1295.54883	160.88721	911.49573	1166.67212	407.30182	942.49207	885.13885	88.39732	911.90869	1043.59204	144.95056	735.28265	1099.98669	98.54788	1067.98096	1081.16284	197.81358	702.17157	559.83508	197.03291	661.14484	559.82806	199.60133	716.60480	472.34253	188.59221	1145.93933	553.18250	186.41151	1194.24036	552.18292	186.96132	1134.10510	467.13251	150.11014	719.68494	867.15009	175.95569	681.80298	848.38562	158.28555	698.22986	923.79480	133.65213	1094.32129	822.49725	126.37937	1122.13916	896.72919	142.53592	1140.55518	839.29236 
1625	8.120	460.50082	977.85364	841.22369	463.76511	919.03992	845.78607	445.88525	947.51166	851.62183	256.87445	-186.49936	479.50781	208.33247	2033.69812	465.03735	291.83832	1383.27161	30.17625	127.37749	1492.93079	44.48611	192.48282	1541.22009	29.05706	156.19043	1521.70190	41.82753	334.22778	482.00626	39.66600	164.58272	385.19913	49.68488	227.24939	334.95389	30.01633	189.15636	355.05899	46.45789	274.59540	496.31815	67.90407	314.87155	427.22049	71.29939	345.70300	484.81863	201.08195	337.20959	490.24582	265.58868	374.07068	520.92224	248.19627	373.49786	528.76642	291.81046	242.76189	1380.16748	62.15393	284.40570	1439.93274	69.76671	301.71228	1372.40320	310.27808	342.22314	1352.40222	288.95267	305.67102	1386.31140	246.47382	442.03790	1140.57495	703.04358	358.66113	1224.79211	597.53503	401.15945	1222.67432	568.45172	409.50552	1195.13623	627.84113	467.55481	745.18341	708.24524	384.17688	649.14142	603.57050	430.05820	660.47974	582.28558	422.61316	683.38690	643.92078	-53.69970	793.01221	1252.30005	12.72900	851.07941	1323.36902	-16.90818	968.21680	1293.07593	159.91304	911.37048	1164.86780	407.38266	942.66260	884.27142	87.91463	911.81342	1041.54187	144.35796	735.19952	1098.00171	97.77280	1067.85535	1079.13708	197.71075	702.14563	557.93823	196.89771	661.11713	557.95190	199.49222	716.56122	470.43701	188.46457	1145.89355	551.29785	186.16904	1194.14746	550.31757	186.94434	1134.07092	465.27045	149.99091	719.65631	865.22266	175.91687	681.77594	846.51007	158.20058	698.26013	921.89819	133.29359	1094.13159	820.59277	125.89840	1121.98950	894.78015	142.14882	1140.37268	837.36273 
1626	8.125	460.77222	978.14081	840.48767	463.60980	919.36920	844.69385	446.10635	947.74536	850.77991	256.51343	-186.54579	477.48474	208.54010	2033.64246	463.23557	291.78775	1383.29919	30.21861	127.38104	1492.93872	44.47477	192.45604	1541.24939	29.05148	156.14954	1521.73889	41.82832	334.27014	481.77054	39.77645	164.57011	385.19070	49.67859	227.26260	334.95941	29.99469	189.14153	355.04941	46.45479	274.55176	496.28027	67.92122	314.82513	427.19305	71.30801	345.51135	484.70175	201.11751	337.57648	489.65152	266.04938	373.81339	520.70819	248.29266	373.25385	528.49341	291.90491	242.66273	1380.18677	62.18642	284.26300	1439.92749	69.75963	300.61490	1373.25696	310.19138	341.65723	1353.10364	289.25809	305.30392	1386.72034	246.62161	442.16495	1141.28064	702.59875	358.45682	1225.42676	597.55035	400.93622	1223.61914	568.38544	409.46298	1195.77917	627.52618	468.14594	745.33948	707.50623	384.29617	649.15002	603.34363	430.11371	660.39154	581.86096	422.88464	683.48206	643.42944	-54.87477	792.81763	1249.90356	11.30301	850.95703	1321.09656	-18.31764	968.04718	1290.65417	158.93953	911.26178	1163.08923	407.49396	942.84454	883.44238	87.41823	911.73145	1039.49854	143.83525	735.12360	1096.04919	96.99439	1067.74670	1077.13257	197.02061	702.20807	556.17413	196.68478	661.06555	556.06494	199.39005	716.51044	468.52542	188.31924	1145.81348	549.44153	186.05116	1194.10400	548.48541	186.92278	1134.05139	463.37527	149.80946	719.47589	863.28375	175.83749	681.61450	844.66846	158.09261	698.24951	920.01569	132.92505	1093.97839	818.66211	125.40137	1121.80566	892.85492	141.63206	1140.23303	835.47174 
1627	8.130	461.05270	978.42773	839.81543	464.01453	919.49170	844.01147	446.38339	947.97693	850.03583	256.10464	-186.80217	475.49738	208.67094	2033.84082	461.51508	291.73590	1383.30688	30.26148	127.36920	1492.96082	44.46314	192.45395	1541.26855	29.03664	156.12294	1521.76587	41.83073	334.25079	481.76718	39.79321	164.56706	385.18259	49.66507	227.25227	334.93643	29.99477	189.13956	355.03607	46.44836	274.51062	496.26788	67.95380	314.80209	427.19254	71.32362	345.34323	484.51251	201.14682	337.34509	489.43948	266.09589	373.62857	520.48077	248.42285	373.05707	528.23712	292.01758	242.59453	1380.20752	62.21799	284.17044	1440.00769	69.77985	300.18723	1373.82922	310.30713	341.29929	1353.67090	289.47968	304.75647	1387.23083	246.71823	442.37943	1141.97717	702.16693	358.42490	1226.05750	597.43524	400.88541	1224.39832	568.16516	409.58865	1196.42871	627.24109	468.66122	745.35297	706.73700	384.41638	649.16199	603.08868	430.18350	660.27148	581.43646	423.17114	683.56372	642.98248	-56.01212	792.59369	1247.54419	9.88844	850.80280	1318.90125	-19.71644	967.87207	1288.27393	157.92137	911.16150	1161.30859	407.54697	942.99268	882.62598	86.88753	911.62744	1037.48096	143.27147	735.03961	1094.10547	96.20448	1067.62280	1075.14343	196.81371	702.14136	554.28607	196.46536	661.01569	554.18787	199.24611	716.45276	466.65677	188.19649	1145.75159	547.57098	185.96469	1194.04004	546.67078	186.89781	1134.02417	461.50247	149.61739	719.22119	861.39856	175.73274	681.39978	842.84845	158.01500	698.11719	918.16693	132.55429	1093.81067	816.74799	124.93189	1121.61353	890.93359	141.21835	1140.06238	833.57050 
1628	8.135	461.33911	978.69501	839.16711	464.40442	919.81335	843.36249	446.64194	948.18988	849.24738	255.80602	-186.68646	473.43478	208.93625	2033.54004	459.62973	291.70856	1383.33911	30.29095	127.35912	1492.98486	44.43087	192.42757	1541.28809	29.03927	156.09329	1521.78174	41.82389	334.16702	481.97046	39.75615	164.56175	385.17065	49.66312	227.25285	334.94391	29.99175	189.13487	355.02786	46.44271	274.47021	496.24493	67.96636	314.76810	427.18555	71.35616	345.20737	484.36804	201.19867	337.07315	489.27859	266.12875	373.48447	520.28595	248.52190	372.87045	527.98615	292.13199	242.54967	1380.23962	62.24781	284.09509	1440.02466	69.78323	299.96808	1374.35791	310.38452	341.05014	1354.15198	289.59543	304.54221	1387.59534	246.75183	442.63132	1142.67700	701.71204	358.64893	1226.61157	597.22638	400.94043	1225.10132	567.83044	409.85867	1197.00354	626.84235	469.15253	745.24097	705.94897	384.58395	649.16016	602.83398	430.33170	660.14789	581.06134	423.49179	683.65271	642.53223	-57.16222	792.34711	1245.21899	8.47407	850.67114	1316.70679	-21.11997	967.70361	1285.92493	156.90288	911.05414	1159.54883	407.63242	943.15753	881.87720	86.36413	911.54565	1035.47192	142.72647	734.95227	1092.19702	95.47109	1067.29822	1073.01343	196.58913	702.07233	552.44324	196.24734	660.93866	552.32288	199.08385	716.39966	464.79175	188.07217	1145.66675	545.75433	185.88857	1193.95313	544.88556	186.85840	1133.95557	459.67307	149.36546	718.87714	859.49963	175.60217	681.11975	841.03375	157.81033	697.91504	916.32520	132.09891	1093.57751	814.86884	124.45419	1121.41064	889.02570	140.80103	1139.84851	831.68555 
1629	8.140	461.66019	978.93604	838.56189	465.24484	920.21436	842.79645	446.93530	948.40106	848.56403	255.43120	-186.75998	471.43881	209.16461	2033.48474	457.87296	291.69104	1383.33301	30.31995	127.36319	1492.97729	44.40862	192.40627	1541.28882	29.04599	156.07840	1521.80774	41.81574	334.15237	481.98477	39.77357	164.54684	385.16705	49.65129	227.25513	334.93622	29.99765	189.13667	355.02457	46.44491	274.44009	496.24518	67.98923	314.72244	427.19720	71.36675	345.07242	484.21475	201.26201	336.83456	489.11923	266.18683	373.35376	520.07355	248.62486	372.67844	527.71973	292.21478	242.53696	1380.24475	62.27317	284.05243	1440.05798	69.78741	299.94543	1374.82043	310.40747	340.97598	1354.48779	289.62430	304.63193	1387.77966	246.67505	442.97647	1143.33337	701.25629	359.08392	1227.07239	596.93292	401.00385	1225.91675	567.52161	410.44281	1197.49548	626.36682	469.64236	745.22845	705.24072	384.79285	649.16064	602.56281	430.52563	660.02393	580.66168	423.82263	683.67383	642.11487	-58.25752	792.10248	1242.93567	7.11168	850.51648	1314.56116	-22.52672	967.51349	1283.64600	155.84032	910.97491	1157.78503	407.70007	943.29077	881.13043	85.80817	911.43488	1033.48438	142.14297	734.86462	1090.30078	94.57104	1067.32471	1071.17090	196.38846	702.00391	550.60150	195.98648	660.87482	550.46466	198.97711	716.33667	462.90057	187.89761	1145.57849	543.93555	185.80070	1193.86462	543.10541	186.82787	1133.94873	457.81323	149.00461	718.47308	857.67249	175.40907	680.78534	839.24902	157.53398	697.66016	914.46661	131.70284	1093.35498	813.00739	124.00244	1121.22375	887.13788	140.38110	1139.62085	829.79956 
1630	8.145	461.98172	979.16681	837.97577	465.15186	920.26129	842.16156	447.33325	948.71747	847.94977	255.06458	-186.81345	469.45142	209.34238	2033.42737	456.11749	291.68881	1383.35144	30.31823	127.34732	1492.97632	44.39376	192.39136	1541.29907	29.05479	156.07553	1521.80273	41.80334	334.13382	482.01514	39.79607	164.54234	385.16879	49.63618	227.32721	335.08780	29.90002	189.13643	355.02142	46.44183	274.43530	496.23743	67.99369	314.68619	427.24408	71.36095	344.87863	484.11148	201.26419	336.08466	489.33221	265.79672	373.20413	519.83685	248.73273	372.49402	527.46271	292.29712	242.53854	1380.28064	62.28580	284.03976	1440.09497	69.78517	300.12799	1375.16919	310.40186	341.08432	1354.74121	289.61722	304.78723	1388.12122	246.70908	443.45016	1143.93311	700.81329	359.80399	1227.60583	596.54370	401.98349	1225.94031	566.88037	411.13776	1197.91711	625.86365	470.19247	745.27252	704.67706	385.05179	649.13922	602.29999	430.74146	659.92542	580.30878	424.13885	683.70331	641.73279	-59.35095	791.85236	1240.64355	5.75358	850.36047	1312.41968	-23.90489	967.31622	1281.36328	154.79649	910.85199	1156.00134	407.74890	943.41541	880.43054	85.20384	911.34277	1031.47876	141.51979	734.78064	1088.39600	93.69440	1067.19446	1069.20691	196.66579	701.83356	548.64252	195.73001	660.82263	548.59888	198.82161	716.28418	461.04843	187.80040	1145.51501	542.10706	185.71704	1193.79700	541.32092	186.77991	1133.88330	456.00772	148.57787	718.08075	855.82495	175.16298	680.50232	837.45148	157.19608	697.33856	912.68573	131.35622	1093.09644	811.12402	123.53991	1121.03137	885.25195	140.04546	1139.37549	827.89752 
